<?xml version="1.0" encoding="utf-8"?>
<!-- Generator: Adobe Illustrator 28.1.0, SVG Export Plug-In . SVG Version: 6.00 Build 0)  -->
<svg version="1.1" id="Umsetzung" xmlns="http://www.w3.org/2000/svg" xmlns:xlink="http://www.w3.org/1999/xlink" x="0px" y="0px"
	 viewBox="0 0 500 186" style="enable-background:new 0 0 500 186;" xml:space="preserve">
<style type="text/css">
	.st0{fill:#1F1F21;}
	.st1{fill:#417C5E;}
</style>
<g>
	<path class="st0" d="M363.2,45.8c0-0.7,0.1-2.2,0.3-3.9c0.5-3.3,1.2-5.9,1.7-7.3c0.2-0.5,0.7-2,1.5-3.6c0.3-0.7,0.7-1.4,1.1-2.1
		c0.2-0.3,0.4-0.6,0.7-1c0.7-1,1.3-1.5,1.3-1.5s-3.4,2.9-6.4,6.3c-5.5,6.3-8.4,12.2-9.8,15c-5.1,10.6-6.5,19.8-7.2,25.3
		c-0.7,5.2-1.7,15.9,0,29.5c1,8.2,2.2,17.5,7.3,28.6c2.8,6,8.6,18.6,22.1,27.7c2.9,1.9,9,5.5,17.4,7.8c2.8,0.7,8.4,2.2,15.7,2.2
		c4.3,0,9.2-0.5,14.4-2c2.6-0.8,8.7-2.5,15.1-6.9c-1.7-3.7-4.1-6.1-5.1-7c-1.2-1.2-3.9-3.7-8.1-5c-0.7-0.2-1.3-0.3-1.8-0.4
		c-2,0.9-3.8,1.4-5,1.7c-9.4,2.7-17.3,0.6-20.7-0.3c-6.1-1.6-10.5-4.3-12-5.3c-9.2-6.2-13.3-14.9-15.7-20.2
		c-3.9-8.5-4.8-15.6-5.8-23.1c-1.6-12.6-0.4-21.9,0-24.5c0.7-4.9,1.7-9,2.6-11.9c-0.7-1.5-1.5-3.5-2.1-5.9c-0.4-1.4-0.6-2.6-0.7-3.1
		C363.3,51,363.2,48,363.2,45.8L363.2,45.8z"/>
	<path class="st1" d="M449.3,100.2c-1.4-1.9-2.9-3.5-4.5-5.1c-0.3-0.3-0.5-0.5-0.7-0.7c-0.2-0.2-0.4-0.4-0.7-0.6c0,0,0,0,0,0
		c-0.3-0.3-0.7-0.6-1-0.9c0-0.1-0.1-0.1-0.2-0.1c-0.3-0.3-0.7-0.6-1-0.8c-4.8-3.7-16.5-10-16.5-10c-0.9-0.5-1.8-0.9-2.7-1.4
		c-1.2-0.6-2.2-1.2-3.2-1.7c-1.9-0.9-1.8-0.9-2.4-1.2c-1-0.5-1.9-0.9-2.9-1.4c-2.5-1.2-5.4-2.5-11.2-5.5c-10.6-5.5-14-7.8-15.9-9.7
		c-0.3-0.3-0.7-0.7-1.1-1.2c-0.9-1.1-4.1-5.2-4.5-10.2c-0.4-5.3,2.3-10.1,5.5-12.9c1.5-1.3,2.8-1.9,4.4-2.7c3.5-1.7,6.7-2.4,10.5-3
		c1.1-0.2,2.3-0.4,3.6-0.6c0,0,0-0.1,0-0.1c0.4-1.6,1.2-5,0.9-8.6c-0.1-1.6-0.6-6.4-3.8-9.3c-1.4,0.2-2.7,0.4-3.8,0.6
		c-1.2,0.2-2.8,0.5-4.7,0.9c-0.6,0.2-1.2,0.3-1.8,0.5c-0.7,0.2-1.4,0.4-2,0.6c-1.9,0.6-3.9,1.3-6.1,2.3c-1.6,0.7-3.7,1.8-6.2,3.3
		c0,0,0,0-0.1,0c-3.4,2.1-6.9,5-7.6,5.6c-3.1,2.8-7.6,12.9-6.5,24.6c0.2,2.6,1.4,12.3,8.4,20.9c5.1,6.2,11.4,9.6,22.5,15.4
		c6.1,3.2,9.2,4.6,11.9,5.9c2.3,1.1,4.1,1.9,7.6,3.8c12.3,6.6,17.5,9.4,21.2,14.5c1.9,2.6,5.2,7,5.3,13c0.2,7.1-4,12.4-5.8,14.7
		c-1.1,1.4-2.3,2.6-3.5,3.7c0.5,1.1,2.1,4.2,4.9,6.9c1.6,1.5,4.9,4.6,9.1,4.6c0.1,0,0.2,0,0.3,0c1.1-1.1,2.1-2.3,3.2-3.6
		c2.5-3.2,10.2-12.9,9.8-26.7C458,111.8,451.9,103.7,449.3,100.2L449.3,100.2z"/>
	<path class="st0" d="M445.7,87.5c2.4-2.8,7-8.1,9.9-16.5c2.9-8.3,3.4-16.6,1.6-24.6c-1.4-6.4-5.1-15.7-14.5-23.7
		c-9.1-7.8-18.8-9.5-22.9-10.2c-3.7-0.7-7.2-0.8-10.3-0.8c-1.3,4.1-0.7,7.9-0.5,9.3c0.8,4.7,3.2,8.2,3.7,8.9c0,0,0,0,0,0
		c1.3,0.1,2.6,0.2,3.9,0.4c3.2,0.6,9,1.6,14.5,6.2c5.6,4.8,7.7,10.1,8.5,13.8c1.5,6.9-0.4,12.6-1,14.4c-1.8,5.1-4.6,8.3-6.4,10.5
		c-2.2,2.5-4.6,4.7-7.4,6.6c0,0,11.7,6.3,16.5,10C442.8,90.6,444.3,89.1,445.7,87.5L445.7,87.5z"/>
</g>
<g>
	<path class="st0" d="M210.1,71.4c-4.5,0-8.4-1.2-11.6-3.6c-3.2-2.4-5.7-5.8-7.4-10.3c-1.7-4.4-2.6-9.8-2.6-15.9s0.9-11.5,2.7-16
		c1.8-4.5,4.3-7.9,7.6-10.3s7.3-3.6,11.9-3.6c4.2,0,7.9,1.1,11,3.2s5.3,5.2,6.8,9.2l-5.7,2.2c-1-2.8-2.6-5-4.7-6.6
		c-2.1-1.5-4.6-2.3-7.3-2.3c-5.2,0-9.2,2.1-12,6.1c-2.7,4.1-4.1,10.1-4.1,18.1c0,7.5,1.4,13.4,4.1,17.6c2.7,4.3,6.5,6.4,11.4,6.4
		c3.2,0,6-0.9,8.4-2.6c2.4-1.8,4-4.1,4.9-7.2l5.7,2c-1.3,4.2-3.6,7.6-7,9.9C218.8,70.2,214.8,71.4,210.1,71.4L210.1,71.4z"/>
	<path class="st0" d="M260.4,71.4c-3.6,0-7-0.8-10.3-2.3s-6.1-3.8-8.6-6.6l4.4-3.7c2.2,2.3,4.5,4.1,7,5.4c2.5,1.3,5,1.9,7.5,1.9
		c3.9,0,6.9-0.9,9-2.5c2.1-1.7,3.2-4.1,3.2-7.2c0-1.9-0.5-3.6-1.5-5.2s-2.6-3-4.8-4.4s-5-2.7-8.5-3.9c-5.8-2.2-9.9-4.5-12.4-7.1
		c-2.5-2.6-3.8-5.8-3.8-9.6c0-4.3,1.6-7.7,4.8-10.4c3.2-2.7,7.4-4,12.7-4c3.4,0,6.6,0.6,9.6,1.9s5.6,3.2,7.8,5.6l-4.2,3.6
		c-3.9-3.8-8.3-5.7-13.2-5.7c-3.5,0-6.3,0.8-8.4,2.4c-2.1,1.6-3.1,3.8-3.1,6.6c0,2.5,1,4.6,2.9,6.3S256,36,261.3,38
		c4.3,1.6,7.7,3.2,10.2,4.9s4.3,3.7,5.4,5.8c1.1,2.1,1.6,4.6,1.6,7.4c0,4.7-1.6,8.4-4.8,11.1C270.5,70,266,71.4,260.4,71.4
		L260.4,71.4z"/>
	<path class="st0" d="M296.3,70V13h5.9v10.6c1.5-3.8,3.6-6.7,6.3-8.8c2.7-2.1,5.8-3.1,9.3-3.1s6.1,0.8,8,2.5l-1,5.7
		c-1-0.7-2.2-1.2-3.5-1.6s-2.7-0.5-4.1-0.5c-3,0-5.6,0.9-7.8,2.6s-4,4.1-5.3,7.2c-1.3,3.1-1.9,6.6-1.9,10.6V70L296.3,70L296.3,70z"
		/>
</g>
<g>
	<path class="st0" d="M62.2,139.6l-20.9-57h11.4l12.9,36.6c0.3,0.9,0.7,1.8,0.9,2.7c0.3,0.9,0.6,1.9,0.8,2.8c0.3-1,0.5-1.9,0.8-2.8
		s0.6-1.8,0.9-2.7L82,82.6h11.3l-20.9,57H62.2L62.2,139.6z"/>
	<path class="st0" d="M105.9,139.6v-57H117v57H105.9z"/>
	<path class="st0" d="M152.6,140.9c-4.2,0-8.1-0.9-12-2.7c-3.8-1.8-6.9-4.2-9.3-7.2l7.7-6.5c2,2.1,4.2,3.8,6.6,4.9s4.9,1.8,7.2,1.8
		c3.2,0,5.7-0.6,7.4-1.8s2.6-2.8,2.6-4.9c0-1.3-0.4-2.6-1.2-3.6c-0.8-1.1-2.1-2.2-4-3.2c-1.9-1-4.5-2.1-7.7-3.3
		c-6.3-2.3-10.8-4.9-13.6-7.6c-2.7-2.7-4.1-6.2-4.1-10.3c0-4.5,1.8-8.2,5.5-11c3.6-2.8,8.4-4.2,14.2-4.2c4,0,7.7,0.8,11,2.3
		c3.4,1.5,6.2,3.7,8.6,6.6l-7.5,6.2c-3.4-3.5-7.5-5.3-12.3-5.3c-2.7,0-4.9,0.5-6.5,1.5s-2.4,2.4-2.4,4.2s0.9,3.3,2.7,4.6
		c1.8,1.3,5.1,2.8,10,4.6c4.2,1.5,7.6,3,10.2,4.8c2.6,1.8,4.5,3.8,5.7,6s1.8,4.8,1.8,7.8c0,5.1-1.9,9.2-5.6,12.1
		C164.2,139.4,159.1,140.9,152.6,140.9L152.6,140.9z"/>
	<path class="st0" d="M188.5,139.6v-57h11.1v57H188.5z"/>
	<path class="st0" d="M240,140.9c-7.9,0-14.1-2.7-18.6-8c-4.5-5.3-6.8-12.6-6.8-21.8c0-6.1,1-11.4,3.1-15.9s5-7.9,8.8-10.4
		c3.8-2.4,8.3-3.6,13.5-3.6s9.8,1.2,13.6,3.6c3.8,2.4,6.7,5.8,8.8,10.3s3.1,9.8,3.1,15.9s-1,11.5-3.1,16s-5,7.9-8.8,10.3
		C249.7,139.7,245.2,140.9,240,140.9L240,140.9z M240,130.4c4.5,0,7.9-1.7,10.5-5.1c2.5-3.4,3.8-8.2,3.8-14.3s-1.2-10.9-3.8-14.3
		c-2.5-3.4-6-5.1-10.5-5.1s-7.9,1.7-10.5,5.1c-2.5,3.4-3.8,8.2-3.8,14.4s1.2,10.8,3.8,14.2S235.5,130.4,240,130.4L240,130.4z"/>
	<path class="st0" d="M279.6,139.6v-57h11.1v5.7c1.8-2.4,3.9-4.1,6.4-5.3c2.5-1.1,5.3-1.7,8.5-1.7c6.7,0,11.8,2,15.2,6.1
		c3.4,4.1,5.1,10.3,5.1,18.5v33.7h-11.1v-33.4c0-4.8-1-8.4-3-10.9c-2-2.4-4.8-3.7-8.6-3.7c-4.2,0-7.3,1.2-9.4,3.6s-3.1,6-3.1,10.8
		v33.6L279.6,139.6L279.6,139.6z"/>
</g>
<g>
	<path class="st0" d="M46.9,169c-1.7,0-3-0.6-4-1.9s-1.5-3-1.5-5.1c0-1.4,0.2-2.7,0.7-3.7s1.1-1.9,1.9-2.4c0.8-0.6,1.8-0.9,2.9-0.9
		c1.3,0,2.4,0.4,3.2,1.3V151l2.6-1.2v18.9h-2.6v-1.1C49.4,168.6,48.3,169,46.9,169L46.9,169z M47.3,166.6c0.6,0,1.2-0.1,1.6-0.4
		c0.5-0.3,0.9-0.7,1.2-1.2v-6c-0.3-0.5-0.7-0.9-1.2-1.1c-0.5-0.3-1-0.4-1.6-0.4c-1,0-1.9,0.4-2.4,1.2c-0.6,0.8-0.8,1.9-0.8,3.4
		c0,0.9,0.1,1.7,0.4,2.4s0.7,1.2,1.1,1.6C46.1,166.4,46.6,166.6,47.3,166.6z"/>
	<path class="st0" d="M62.5,169c-1.2,0-2.3-0.3-3.2-0.9c-0.9-0.6-1.6-1.4-2.1-2.5c-0.5-1.1-0.7-2.3-0.7-3.7c0-1.5,0.2-2.7,0.8-3.8
		c0.5-1,1.2-1.8,2.1-2.4s2-0.8,3.2-0.8c1,0,2,0.2,2.8,0.7c0.8,0.5,1.5,1.1,2.1,2.1c0.5,0.9,0.8,2.1,0.8,3.6c0,0.2,0,0.5,0,0.8
		c0,0.3,0,0.6-0.1,0.9h-9c0.1,0.7,0.2,1.4,0.5,2s0.7,1,1.2,1.3c0.5,0.3,1.1,0.5,1.7,0.5c0.6,0,1.1-0.1,1.6-0.3s0.9-0.5,1.3-1
		l1.5,1.6c-0.5,0.5-1.2,1-1.9,1.4C64.3,168.9,63.4,169.1,62.5,169L62.5,169z M59.1,160.9h6.5c0-0.7-0.2-1.3-0.4-1.9s-0.6-1-1-1.3
		c-0.5-0.3-1-0.5-1.7-0.5c-0.9,0-1.7,0.3-2.3,0.9S59.1,159.6,59.1,160.9L59.1,160.9z"/>
	<path class="st0" d="M75.5,169c-1,0-1.9-0.2-2.8-0.6c-0.9-0.4-1.6-1-2.2-1.7l1.8-1.5c0.5,0.5,1,0.9,1.6,1.2s1.1,0.4,1.7,0.4
		c0.8,0,1.3-0.1,1.7-0.4s0.6-0.7,0.6-1.1c0-0.3-0.1-0.6-0.3-0.9c-0.2-0.3-0.5-0.5-0.9-0.8s-1.1-0.5-1.8-0.8
		c-1.5-0.5-2.6-1.1-3.2-1.8s-1-1.5-1-2.4c0-1.1,0.4-1.9,1.3-2.6c0.9-0.7,2-1,3.3-1c0.9,0,1.8,0.2,2.6,0.5s1.5,0.9,2,1.5l-1.8,1.5
		c-0.8-0.8-1.8-1.2-2.9-1.2c-0.6,0-1.2,0.1-1.5,0.4c-0.4,0.2-0.6,0.6-0.6,1s0.2,0.8,0.6,1.1c0.4,0.3,1.2,0.7,2.3,1.1
		c1,0.3,1.8,0.7,2.4,1.1c0.6,0.4,1.1,0.9,1.3,1.4s0.4,1.1,0.4,1.8c0,1.2-0.4,2.2-1.3,2.9S77,169,75.5,169L75.5,169z"/>
	<path class="st0" d="M84.1,168.7v-13.4h2.6v13.4H84.1z"/>
	<path class="st0" d="M95.5,174.3l-1.3-2.1c1.2-0.1,2.2-0.2,2.9-0.5c0.7-0.2,1.3-0.6,1.6-1c0.3-0.4,0.5-1,0.5-1.6v-1.5
		c-0.8,1-1.8,1.5-3.3,1.5c-1.1,0-2.1-0.3-2.9-0.9c-0.8-0.6-1.5-1.4-1.9-2.5c-0.4-1-0.7-2.3-0.7-3.7s0.2-2.7,0.7-3.7s1.1-1.9,1.9-2.4
		s1.8-0.9,3-0.9c0.7,0,1.2,0.1,1.8,0.3s1,0.5,1.4,1v-1h2.6v12.8c0,1-0.1,1.9-0.4,2.7s-0.6,1.4-1.1,1.9c-0.5,0.5-1.2,0.9-2,1.2
		S96.6,174.2,95.5,174.3L95.5,174.3z M96.5,166.6c0.5,0,1.1-0.1,1.6-0.5c0.5-0.3,0.9-0.7,1.2-1.2V159c-0.3-0.5-0.7-0.8-1.2-1.1
		s-1-0.5-1.6-0.5c-1.1,0-1.9,0.4-2.5,1.2c-0.6,0.8-0.9,1.9-0.9,3.4c0,0.9,0.1,1.8,0.4,2.4s0.7,1.2,1.2,1.6
		C95.2,166.4,95.8,166.6,96.5,166.6L96.5,166.6z"/>
	<path class="st0" d="M106.4,168.7v-13.4h2.6v1.3c0.4-0.6,0.9-1,1.5-1.2c0.6-0.3,1.2-0.4,2-0.4c1.6,0,2.8,0.5,3.6,1.4
		s1.2,2.4,1.2,4.4v7.9h-2.6v-7.9c0-1.1-0.2-2-0.7-2.6s-1.1-0.9-2-0.9c-1,0-1.7,0.3-2.2,0.8s-0.7,1.4-0.7,2.5v7.9L106.4,168.7
		L106.4,168.7z"/>
	<path class="st0" d="M121.6,168.7v-13.4h2.6v13.4H121.6z"/>
	<path class="st0" d="M128.7,168.7v-13.4h2.6v1.3c0.4-0.6,0.9-1,1.5-1.2c0.6-0.3,1.2-0.4,2-0.4c1.6,0,2.8,0.5,3.6,1.4
		s1.2,2.4,1.2,4.4v7.9H137v-7.9c0-1.1-0.2-2-0.7-2.6s-1.1-0.9-2-0.9c-1,0-1.7,0.3-2.2,0.8s-0.7,1.4-0.7,2.5v7.9L128.7,168.7
		L128.7,168.7z"/>
	<path class="st0" d="M148.5,174.3l-1.3-2.1c1.2-0.1,2.2-0.2,2.9-0.5c0.7-0.2,1.3-0.6,1.6-1c0.3-0.4,0.5-1,0.5-1.6v-1.5
		c-0.8,1-1.9,1.5-3.3,1.5c-1.1,0-2.1-0.3-2.9-0.9c-0.8-0.6-1.5-1.4-1.9-2.5c-0.4-1-0.7-2.3-0.7-3.7s0.2-2.7,0.7-3.7s1.1-1.9,1.9-2.4
		s1.8-0.9,3-0.9c0.6,0,1.2,0.1,1.8,0.3s1,0.5,1.4,1v-1h2.6v12.8c0,1-0.1,1.9-0.4,2.7s-0.6,1.4-1.1,1.9c-0.5,0.5-1.2,0.9-2,1.2
		S149.6,174.2,148.5,174.3L148.5,174.3z M149.5,166.6c0.5,0,1.1-0.1,1.6-0.5c0.5-0.3,0.9-0.7,1.2-1.2V159c-0.3-0.5-0.7-0.8-1.2-1.1
		s-1-0.5-1.6-0.5c-1.1,0-1.9,0.4-2.5,1.2s-0.9,1.9-0.9,3.4c0,0.9,0.1,1.8,0.4,2.4s0.7,1.2,1.2,1.6
		C148.2,166.4,148.8,166.6,149.5,166.6L149.5,166.6z"/>
	<path class="st0" d="M165.8,168.7v-13.4h2.6v1.6c0.3-0.6,0.7-1.1,1.2-1.5c0.5-0.3,1.1-0.5,1.8-0.5c0.9,0,1.6,0.3,2.2,0.8l-0.4,2.4
		c-0.3-0.2-0.6-0.4-0.9-0.5s-0.7-0.2-1.1-0.2c-0.6,0-1.1,0.1-1.5,0.5c-0.4,0.3-0.8,0.7-1,1.3s-0.4,1.2-0.4,2v7.5L165.8,168.7
		L165.8,168.7z"/>
	<path class="st0" d="M181,169c-1.2,0-2.3-0.3-3.2-0.9c-0.9-0.6-1.6-1.4-2.1-2.5c-0.5-1.1-0.7-2.3-0.7-3.7c0-1.5,0.2-2.7,0.8-3.8
		c0.5-1,1.2-1.8,2.1-2.4s2-0.8,3.2-0.8c1,0,2,0.2,2.8,0.7c0.9,0.5,1.5,1.1,2.1,2.1c0.5,0.9,0.8,2.1,0.8,3.6c0,0.2,0,0.5,0,0.8
		c0,0.3,0,0.6-0.1,0.9h-9c0.1,0.7,0.2,1.4,0.5,2s0.7,1,1.2,1.3c0.5,0.3,1.1,0.5,1.7,0.5c0.6,0,1.1-0.1,1.6-0.3
		c0.5-0.2,0.9-0.5,1.4-1l1.5,1.6c-0.5,0.5-1.2,1-1.9,1.4C182.8,168.9,182,169.1,181,169L181,169z M177.6,160.9h6.5
		c0-0.7-0.1-1.3-0.4-1.9s-0.6-1-1-1.3s-1-0.5-1.6-0.5c-0.9,0-1.7,0.3-2.3,0.9C178,158.7,177.7,159.6,177.6,160.9L177.6,160.9z"/>
	<path class="st0" d="M194,169c-1,0-1.9-0.2-2.8-0.6c-0.9-0.4-1.6-1-2.2-1.7l1.8-1.5c0.5,0.5,1,0.9,1.6,1.2s1.1,0.4,1.7,0.4
		c0.8,0,1.3-0.1,1.7-0.4s0.6-0.7,0.6-1.1c0-0.3-0.1-0.6-0.3-0.9c-0.2-0.3-0.5-0.5-0.9-0.8s-1.1-0.5-1.8-0.8
		c-1.5-0.5-2.6-1.1-3.2-1.8s-1-1.5-1-2.4c0-1.1,0.4-1.9,1.3-2.6c0.9-0.7,2-1,3.3-1c0.9,0,1.8,0.2,2.6,0.5c0.8,0.4,1.5,0.9,2,1.5
		l-1.8,1.5c-0.8-0.8-1.8-1.2-2.9-1.2c-0.6,0-1.1,0.1-1.5,0.4c-0.4,0.2-0.6,0.6-0.6,1s0.2,0.8,0.6,1.1c0.4,0.3,1.2,0.7,2.4,1.1
		c1,0.3,1.8,0.7,2.4,1.1c0.6,0.4,1.1,0.9,1.4,1.4s0.4,1.1,0.4,1.8c0,1.2-0.4,2.2-1.3,2.9C196.8,168.7,195.6,169,194,169L194,169z"/>
	<path class="st0" d="M202.6,174.1v-18.7h2.6v1.1c0.9-0.9,2-1.4,3.3-1.4c1.1,0,2.1,0.3,2.9,0.9c0.8,0.6,1.5,1.4,1.9,2.4
		s0.7,2.3,0.7,3.7s-0.2,2.7-0.7,3.7c-0.5,1-1.1,1.9-1.9,2.5c-0.8,0.6-1.8,0.9-2.9,0.9c-0.7,0-1.3-0.1-1.8-0.4s-1-0.6-1.4-1.1v5.3
		L202.6,174.1L202.6,174.1z M208.2,166.6c1.1,0,1.9-0.4,2.4-1.2s0.8-1.9,0.8-3.4s-0.3-2.5-0.9-3.3c-0.6-0.8-1.4-1.2-2.4-1.2
		c-0.6,0-1.2,0.1-1.7,0.4c-0.5,0.3-0.9,0.7-1.2,1.2v5.9c0.4,0.5,0.8,0.9,1.3,1.2C207.1,166.4,207.6,166.6,208.2,166.6z"/>
	<path class="st0" d="M223.3,169c-1.9,0-3.3-0.6-4.4-1.9s-1.6-3-1.6-5.1c0-1.4,0.2-2.7,0.7-3.7c0.5-1,1.2-1.9,2.1-2.4
		c0.9-0.6,2-0.9,3.2-0.9s2.3,0.3,3.2,0.9c0.9,0.6,1.6,1.4,2.1,2.4c0.5,1,0.7,2.3,0.7,3.7s-0.2,2.7-0.7,3.8c-0.5,1-1.2,1.9-2.1,2.4
		C225.6,168.8,224.5,169.1,223.3,169L223.3,169z M223.3,166.6c1.1,0,1.9-0.4,2.5-1.2s0.9-1.9,0.9-3.4s-0.3-2.5-0.9-3.4
		s-1.4-1.2-2.5-1.2s-1.9,0.4-2.5,1.2s-0.9,1.9-0.9,3.4s0.3,2.5,0.9,3.3S222.2,166.6,223.3,166.6L223.3,166.6z"/>
	<path class="st0" d="M232.8,168.7v-13.4h2.6v1.3c0.4-0.6,0.9-1,1.5-1.2c0.6-0.3,1.2-0.4,2-0.4c1.6,0,2.8,0.5,3.6,1.4
		s1.2,2.4,1.2,4.4v7.9h-2.6v-7.9c0-1.1-0.2-2-0.7-2.6s-1.1-0.9-2-0.9c-1,0-1.7,0.3-2.2,0.8s-0.7,1.4-0.7,2.5v7.9L232.8,168.7
		L232.8,168.7z"/>
	<path class="st0" d="M252.1,169c-1,0-1.9-0.2-2.8-0.6c-0.9-0.4-1.6-1-2.2-1.7l1.8-1.5c0.5,0.5,1,0.9,1.6,1.2s1.1,0.4,1.7,0.4
		c0.8,0,1.3-0.1,1.7-0.4s0.6-0.7,0.6-1.1c0-0.3-0.1-0.6-0.3-0.9c-0.2-0.3-0.5-0.5-0.9-0.8s-1.1-0.5-1.8-0.8
		c-1.5-0.5-2.6-1.1-3.2-1.8s-1-1.5-1-2.4c0-1.1,0.4-1.9,1.3-2.6c0.9-0.7,2-1,3.3-1c0.9,0,1.8,0.2,2.6,0.5c0.8,0.4,1.5,0.9,2,1.5
		l-1.8,1.5c-0.8-0.8-1.8-1.2-2.9-1.2c-0.6,0-1.1,0.1-1.5,0.4c-0.4,0.2-0.6,0.6-0.6,1s0.2,0.8,0.6,1.1c0.4,0.3,1.2,0.7,2.4,1.1
		c1,0.3,1.8,0.7,2.4,1.1c0.6,0.4,1.1,0.9,1.3,1.4s0.4,1.1,0.4,1.8c0,1.2-0.4,2.2-1.3,2.9C254.8,168.7,253.6,169,252.1,169L252.1,169
		z"/>
	<path class="st0" d="M260.7,168.7v-13.4h2.6v13.4H260.7z"/>
	<path class="st0" d="M273.6,169c-0.6,0-1.2-0.1-1.7-0.4s-1-0.6-1.5-1.1v1.1h-2.6V151l2.6-1.2v6.6c0.4-0.5,0.9-0.8,1.4-1.1
		s1.1-0.4,1.8-0.4c1.1,0,2.1,0.3,2.9,0.9c0.8,0.6,1.5,1.4,1.9,2.4c0.5,1,0.7,2.3,0.7,3.7c0,2.2-0.5,4-1.5,5.2
		C276.7,168.4,275.4,169,273.6,169L273.6,169z M273.3,166.6c1,0,1.8-0.4,2.4-1.2c0.5-0.8,0.8-1.9,0.8-3.4s-0.3-2.6-0.8-3.4
		c-0.5-0.8-1.4-1.2-2.4-1.2c-0.6,0-1.1,0.1-1.6,0.5c-0.5,0.3-0.9,0.7-1.2,1.1v5.9c0.3,0.5,0.7,0.9,1.2,1.2S272.7,166.6,273.3,166.6
		L273.3,166.6z"/>
	<path class="st0" d="M282.9,168.7v-13.4h2.6v13.4H282.9z"/>
	<path class="st0" d="M290.1,168.7V151l2.6-1.2v18.9H290.1z"/>
	<path class="st0" d="M297.3,168.7v-13.4h2.6v13.4H297.3z"/>
	<path class="st0" d="M308.1,169c-1,0-1.7-0.3-2.2-0.9c-0.5-0.6-0.8-1.4-0.8-2.5v-8.1h-2.1v-2.3h2.1v-4.3l2.6-1.3v5.5h3.2v2.3h-3.2
		v7.4c0,0.6,0.1,1,0.3,1.2c0.2,0.3,0.5,0.4,1,0.4c0.6,0,1.3-0.2,2-0.7l-0.3,2.4c-0.4,0.2-0.8,0.4-1.3,0.5S308.6,169,308.1,169
		L308.1,169z"/>
	<path class="st0" d="M315.7,173.8l2-5.4l-5-13.1h2.6l3.2,8.7c0.1,0.2,0.2,0.4,0.2,0.6c0.1,0.2,0.1,0.4,0.2,0.7
		c0.1-0.2,0.1-0.5,0.2-0.6s0.1-0.4,0.2-0.6l3.2-8.7h2.7l-7,18.5L315.7,173.8L315.7,173.8z"/>
</g>
</svg>
