<?xml version="1.0" encoding="UTF-8"?>
<svg id="logo with claim light" xmlns="http://www.w3.org/2000/svg" viewBox="0 0 500 500">
  <defs>
    <style>
      .cls-1 {
        fill: #faf9f6;
        stroke-width: 0px;
      }
    </style>
  </defs>
  <g>
    <g>
      <path class="cls-1" d="m363.25,202.8c.03-.74.1-2.17.34-3.95.45-3.32,1.22-5.87,1.71-7.33.18-.52.68-1.98,1.46-3.61.34-.72.71-1.41,1.14-2.12.18-.29.38-.62.68-1.02.7-.96,1.33-1.53,1.33-1.53,0,0-3.4,2.91-6.38,6.32-5.55,6.34-8.4,12.21-9.77,15.02-5.14,10.55-6.46,19.79-7.25,25.31-.74,5.16-1.72,15.85-.02,29.46,1.02,8.18,2.18,17.45,7.31,28.57,2.79,6.04,8.6,18.62,22.06,27.66,2.87,1.93,8.95,5.5,17.37,7.75,2.76.74,8.41,2.25,15.74,2.25,4.3,0,9.18-.52,14.39-2.02,2.6-.75,8.68-2.5,15.15-6.89-1.68-3.73-4.12-6.08-5.15-7.05-1.25-1.17-3.94-3.7-8.11-4.95-.7-.21-1.28-.33-1.79-.43-2.04.87-3.81,1.38-4.99,1.72-9.38,2.71-17.31.59-20.69-.32-6.15-1.64-10.48-4.28-12.05-5.33-9.25-6.2-13.28-14.94-15.69-20.17-3.93-8.51-4.81-15.59-5.75-23.09-1.57-12.59-.39-21.94-.02-24.51.69-4.9,1.7-8.96,2.56-11.92-.67-1.47-1.46-3.46-2.14-5.9-.4-1.45-.64-2.6-.74-3.12-.68-3.6-.76-6.62-.69-8.79Z"/>
      <path class="cls-1" d="m445.69,244.47c2.44-2.83,6.98-8.08,9.88-16.49,2.87-8.31,3.42-16.57,1.62-24.56-1.44-6.39-5.12-15.7-14.51-23.72-9.13-7.79-18.8-9.5-22.92-10.23-3.73-.66-7.19-.83-10.28-.75-1.34,4.13-.72,7.87-.46,9.34.84,4.72,3.2,8.2,3.71,8.94,0,.01.01.02.02.03,1.26.07,2.57.21,3.94.45,3.16.56,9.04,1.6,14.47,6.23,5.57,4.76,7.72,10.12,8.54,13.78,1.55,6.89-.41,12.55-1.05,14.41-1.75,5.07-4.57,8.33-6.43,10.49-2.17,2.52-4.65,4.73-7.4,6.61,0,0,11.71,6.3,16.48,10.02,1.54-1.43,3.01-2.94,4.39-4.55Z"/>
    </g>
    <g>
      <path class="cls-1" d="m210.08,228.37c-4.5,0-8.36-1.2-11.57-3.6-3.22-2.4-5.69-5.82-7.42-10.26-1.73-4.44-2.59-9.75-2.59-15.92s.89-11.54,2.68-16.01c1.78-4.46,4.33-7.89,7.64-10.29,3.31-2.4,7.29-3.6,11.93-3.6,4.24,0,7.89,1.07,10.96,3.21,3.07,2.14,5.33,5.2,6.78,9.17l-5.74,2.18c-1-2.83-2.56-5.01-4.66-6.55-2.1-1.54-4.55-2.31-7.33-2.31-5.24,0-9.23,2.05-11.96,6.13-2.73,4.09-4.1,10.11-4.1,18.07,0,7.51,1.37,13.39,4.1,17.65,2.73,4.26,6.52,6.39,11.35,6.39,3.24,0,6.04-.88,8.42-2.65,2.38-1.77,4.02-4.15,4.91-7.17l5.69,2.01c-1.3,4.24-3.64,7.56-7,9.95-3.36,2.4-7.39,3.6-12.07,3.6Z"/>
      <path class="cls-1" d="m260.39,228.37c-3.57,0-7-.78-10.29-2.34-3.29-1.56-6.14-3.75-8.56-6.58l4.35-3.74c2.16,2.31,4.5,4.09,7.03,5.35,2.53,1.26,5.02,1.9,7.47,1.9,3.9,0,6.91-.85,9.03-2.54,2.12-1.69,3.18-4.08,3.18-7.17,0-1.9-.5-3.63-1.51-5.19s-2.59-3.02-4.77-4.38c-2.18-1.36-5.01-2.67-8.5-3.93-5.76-2.16-9.9-4.53-12.41-7.11-2.51-2.58-3.76-5.77-3.76-9.56,0-4.28,1.61-7.74,4.82-10.4,3.22-2.66,7.45-3.99,12.69-3.99,3.38,0,6.58.65,9.59,1.95,3.01,1.3,5.59,3.16,7.75,5.58l-4.24,3.57c-3.87-3.79-8.27-5.69-13.22-5.69-3.53,0-6.33.8-8.39,2.4-2.06,1.6-3.1,3.79-3.1,6.58,0,2.49.98,4.6,2.93,6.33s5.55,3.58,10.79,5.55c4.27,1.56,7.68,3.21,10.21,4.94,2.53,1.73,4.33,3.66,5.41,5.8,1.08,2.14,1.62,4.62,1.62,7.45,0,4.72-1.61,8.44-4.82,11.15-3.22,2.71-7.65,4.07-13.3,4.07Z"/>
      <path class="cls-1" d="m296.3,227.03v-57h5.91v10.6c1.52-3.79,3.63-6.73,6.33-8.81,2.7-2.08,5.79-3.12,9.29-3.12s6.1.84,8.03,2.51l-.95,5.74c-1.04-.71-2.22-1.23-3.54-1.56-1.32-.33-2.71-.5-4.15-.5-2.98,0-5.59.86-7.84,2.57-2.25,1.71-4.01,4.11-5.27,7.19-1.26,3.09-1.9,6.64-1.9,10.65v31.73h-5.91Z"/>
    </g>
    <g>
      <path class="cls-1" d="m62.25,296.56l-20.86-57h11.38l12.94,36.64c.33.89.65,1.79.95,2.71.3.91.58,1.85.84,2.82.26-.97.53-1.91.81-2.82.28-.91.59-1.81.92-2.71l12.77-36.64h11.26l-20.86,57h-10.15Z"/>
      <path class="cls-1" d="m105.91,296.56v-57h11.1v57h-11.1Z"/>
      <path class="cls-1" d="m152.59,297.89c-4.16,0-8.15-.89-11.96-2.68-3.81-1.79-6.91-4.18-9.29-7.19l7.7-6.52c1.97,2.12,4.18,3.76,6.64,4.94s4.85,1.76,7.19,1.76c3.2,0,5.67-.59,7.42-1.76s2.62-2.8,2.62-4.88c0-1.34-.4-2.56-1.2-3.65-.8-1.1-2.15-2.16-4.04-3.18-1.9-1.02-4.46-2.13-7.7-3.32-6.32-2.34-10.84-4.88-13.55-7.61-2.71-2.73-4.07-6.16-4.07-10.29,0-4.54,1.82-8.22,5.46-11.04,3.64-2.83,8.37-4.24,14.16-4.24,4.02,0,7.7.75,11.04,2.26,3.35,1.51,6.23,3.69,8.64,6.55l-7.53,6.19c-3.38-3.53-7.47-5.3-12.27-5.3-2.71,0-4.87.51-6.47,1.53-1.6,1.02-2.4,2.43-2.4,4.21s.91,3.27,2.73,4.57c1.82,1.3,5.15,2.83,9.98,4.57,4.16,1.45,7.56,3.05,10.18,4.8,2.62,1.75,4.54,3.75,5.74,6s1.81,4.84,1.81,7.78c0,5.13-1.85,9.17-5.55,12.1-3.7,2.94-8.8,4.41-15.31,4.41Z"/>
      <path class="cls-1" d="m188.5,296.56v-57h11.1v57h-11.1Z"/>
      <path class="cls-1" d="m239.97,297.89c-7.88,0-14.09-2.67-18.63-8-4.54-5.33-6.8-12.59-6.8-21.78,0-6.13,1.03-11.43,3.09-15.89,2.06-4.46,5-7.91,8.81-10.35,3.81-2.43,8.32-3.65,13.52-3.65s9.77,1.2,13.58,3.6c3.81,2.4,6.74,5.83,8.78,10.29,2.04,4.46,3.07,9.76,3.07,15.89s-1.03,11.49-3.09,15.95-4.99,7.9-8.78,10.32c-3.79,2.42-8.31,3.63-13.55,3.63Zm0-10.48c4.46,0,7.95-1.71,10.46-5.13,2.51-3.42,3.76-8.18,3.76-14.28s-1.25-10.86-3.76-14.28c-2.51-3.42-6-5.13-10.46-5.13s-7.95,1.71-10.46,5.13c-2.51,3.42-3.76,8.22-3.76,14.39s1.25,10.79,3.76,14.19c2.51,3.4,5.99,5.1,10.46,5.1Z"/>
      <path class="cls-1" d="m279.63,296.56v-57h11.1v5.69c1.78-2.38,3.91-4.15,6.38-5.3,2.47-1.15,5.31-1.73,8.5-1.73,6.73,0,11.79,2.04,15.17,6.13,3.38,4.09,5.07,10.26,5.07,18.52v33.68h-11.1v-33.4c0-4.8-.99-8.42-2.96-10.88-1.97-2.45-4.83-3.68-8.59-3.68-4.16,0-7.29,1.19-9.37,3.57-2.08,2.38-3.12,5.97-3.12,10.76v33.63h-11.1Z"/>
    </g>
    <g>
      <path class="cls-1" d="m46.91,326.03c-1.7,0-3.05-.63-4.04-1.88-.99-1.25-1.48-2.97-1.48-5.15,0-1.42.23-2.66.68-3.71.45-1.05,1.09-1.86,1.92-2.43.83-.57,1.8-.86,2.93-.86,1.28,0,2.36.42,3.24,1.27v-5.29l2.61-1.21v18.94h-2.61v-1.06c-.8.92-1.89,1.38-3.25,1.38Zm.39-2.47c.6,0,1.15-.14,1.64-.41.49-.28.9-.67,1.22-1.19v-5.99c-.32-.47-.74-.85-1.24-1.12-.5-.28-1.04-.41-1.62-.41-1.05,0-1.86.39-2.43,1.18-.57.79-.85,1.91-.85,3.38,0,.92.14,1.72.41,2.41.27.69.65,1.22,1.14,1.59.49.38,1.07.56,1.73.56Z"/>
      <path class="cls-1" d="m62.49,326.03c-1.25,0-2.33-.3-3.23-.89-.91-.59-1.6-1.42-2.09-2.48-.48-1.06-.73-2.28-.73-3.66,0-1.47.25-2.73.75-3.77.5-1.04,1.21-1.84,2.11-2.4s1.97-.83,3.18-.83c1.03,0,1.97.23,2.83.68.85.45,1.53,1.15,2.05,2.09.51.94.77,2.14.77,3.61,0,.21,0,.46-.02.75-.01.29-.04.59-.07.9h-8.96c.07.74.25,1.4.54,1.96.29.56.68,1,1.17,1.32.49.31,1.07.47,1.73.47.59,0,1.12-.1,1.6-.31.48-.21.93-.53,1.35-.96l1.52,1.64c-.52.55-1.17,1-1.93,1.36-.76.35-1.62.53-2.58.53Zm-3.42-8.18h6.47c-.02-.71-.15-1.33-.39-1.87-.24-.54-.59-.96-1.04-1.27-.45-.31-1-.46-1.65-.46-.9,0-1.67.29-2.32.87-.65.58-1.01,1.49-1.08,2.73Z"/>
      <path class="cls-1" d="m75.5,326.03c-.98,0-1.92-.21-2.81-.63-.9-.42-1.62-.98-2.18-1.69l1.81-1.53c.46.5.98.89,1.56,1.16s1.14.41,1.69.41c.75,0,1.33-.14,1.74-.41s.62-.66.62-1.15c0-.31-.09-.6-.28-.86-.19-.26-.51-.51-.95-.75s-1.05-.5-1.81-.78c-1.49-.55-2.55-1.15-3.19-1.79s-.96-1.45-.96-2.42c0-1.07.43-1.93,1.28-2.6.86-.66,1.97-1,3.33-1,.94,0,1.81.18,2.6.53.79.35,1.46.87,2.03,1.54l-1.77,1.45c-.8-.83-1.76-1.25-2.89-1.25-.64,0-1.15.12-1.52.36-.38.24-.56.57-.56.99s.21.77.64,1.07c.43.31,1.21.66,2.35,1.08.98.34,1.78.72,2.39,1.13.62.41,1.07.88,1.35,1.41s.43,1.14.43,1.83c0,1.21-.43,2.16-1.3,2.85-.87.69-2.07,1.04-3.6,1.04Z"/>
      <path class="cls-1" d="m84.13,325.71v-13.4h2.61v13.4h-2.61Z"/>
      <path class="cls-1" d="m95.51,331.3l-1.34-2.1c1.22-.08,2.2-.24,2.94-.47.74-.24,1.27-.57,1.61-1,.33-.43.5-.97.5-1.63v-1.53c-.76.97-1.85,1.46-3.27,1.46-1.12,0-2.09-.29-2.93-.87-.83-.58-1.47-1.39-1.92-2.45-.45-1.05-.68-2.29-.68-3.72s.23-2.66.69-3.71,1.11-1.86,1.94-2.43,1.82-.86,2.96-.86c.65,0,1.25.11,1.8.34s1.02.55,1.4.96v-.98h2.61v12.76c0,1.03-.12,1.92-.36,2.68s-.62,1.38-1.13,1.88c-.52.5-1.17.89-1.97,1.16-.8.27-1.75.44-2.86.51Zm.94-7.74c.53,0,1.05-.15,1.55-.45.5-.3.91-.7,1.21-1.2v-5.89c-.28-.46-.68-.84-1.21-1.14s-1.04-.45-1.55-.45c-1.1,0-1.94.39-2.52,1.17-.58.78-.87,1.91-.87,3.4,0,.94.14,1.75.41,2.43s.67,1.21,1.17,1.58c.51.37,1.11.55,1.8.55Z"/>
      <path class="cls-1" d="m106.41,325.71v-13.4h2.61v1.34c.42-.56.92-.97,1.5-1.25.58-.27,1.25-.41,2-.41,1.58,0,2.77.48,3.57,1.44.8.96,1.19,2.41,1.19,4.35v7.92h-2.61v-7.86c0-1.13-.23-1.98-.69-2.56s-1.14-.87-2.02-.87c-.98,0-1.71.28-2.2.84s-.73,1.4-.73,2.53v7.91h-2.61Z"/>
      <path class="cls-1" d="m121.63,325.71v-13.4h2.61v13.4h-2.61Z"/>
      <path class="cls-1" d="m128.7,325.71v-13.4h2.61v1.34c.42-.56.92-.97,1.5-1.25.58-.27,1.25-.41,2-.41,1.58,0,2.77.48,3.57,1.44.8.96,1.19,2.41,1.19,4.35v7.92h-2.61v-7.86c0-1.13-.23-1.98-.69-2.56s-1.14-.87-2.02-.87c-.98,0-1.71.28-2.2.84s-.73,1.4-.73,2.53v7.91h-2.61Z"/>
      <path class="cls-1" d="m148.52,331.3l-1.34-2.1c1.22-.08,2.2-.24,2.94-.47.74-.24,1.27-.57,1.61-1,.33-.43.5-.97.5-1.63v-1.53c-.76.97-1.85,1.46-3.27,1.46-1.12,0-2.09-.29-2.93-.87-.83-.58-1.47-1.39-1.92-2.45-.45-1.05-.68-2.29-.68-3.72s.23-2.66.69-3.71,1.11-1.86,1.94-2.43,1.82-.86,2.96-.86c.65,0,1.25.11,1.8.34s1.02.55,1.4.96v-.98h2.61v12.76c0,1.03-.12,1.92-.36,2.68s-.62,1.38-1.13,1.88c-.52.5-1.17.89-1.97,1.16-.8.27-1.75.44-2.86.51Zm.94-7.74c.53,0,1.05-.15,1.55-.45.5-.3.91-.7,1.21-1.2v-5.89c-.28-.46-.68-.84-1.21-1.14s-1.04-.45-1.55-.45c-1.1,0-1.94.39-2.52,1.17-.58.78-.87,1.91-.87,3.4,0,.94.14,1.75.41,2.43s.67,1.21,1.17,1.58c.51.37,1.11.55,1.8.55Z"/>
      <path class="cls-1" d="m165.76,325.71v-13.4h2.61v1.65c.29-.63.7-1.11,1.23-1.46.53-.34,1.14-.51,1.82-.51.86,0,1.58.26,2.18.79l-.38,2.43c-.31-.23-.62-.39-.94-.5-.32-.11-.67-.16-1.05-.16-.59,0-1.09.15-1.51.45-.42.3-.75.73-.99,1.28-.24.55-.35,1.2-.35,1.95v7.48h-2.61Z"/>
      <path class="cls-1" d="m181.02,326.03c-1.25,0-2.33-.3-3.23-.89-.91-.59-1.6-1.42-2.09-2.48-.48-1.06-.73-2.28-.73-3.66,0-1.47.25-2.73.75-3.77.5-1.04,1.21-1.84,2.11-2.4s1.97-.83,3.18-.83c1.03,0,1.97.23,2.83.68.85.45,1.53,1.15,2.05,2.09.51.94.77,2.14.77,3.61,0,.21,0,.46-.02.75-.01.29-.04.59-.07.9h-8.96c.07.74.25,1.4.54,1.96.29.56.68,1,1.17,1.32.49.31,1.07.47,1.73.47.59,0,1.12-.1,1.6-.31.48-.21.93-.53,1.35-.96l1.52,1.64c-.52.55-1.17,1-1.93,1.36-.76.35-1.62.53-2.58.53Zm-3.42-8.18h6.47c-.02-.71-.15-1.33-.39-1.87-.24-.54-.59-.96-1.04-1.27-.45-.31-1-.46-1.65-.46-.9,0-1.67.29-2.32.87-.65.58-1.01,1.49-1.08,2.73Z"/>
      <path class="cls-1" d="m194.02,326.03c-.98,0-1.92-.21-2.81-.63-.9-.42-1.62-.98-2.18-1.69l1.81-1.53c.46.5.98.89,1.56,1.16s1.14.41,1.69.41c.75,0,1.33-.14,1.74-.41s.62-.66.62-1.15c0-.31-.09-.6-.28-.86-.19-.26-.51-.51-.95-.75s-1.05-.5-1.81-.78c-1.49-.55-2.55-1.15-3.19-1.79s-.96-1.45-.96-2.42c0-1.07.43-1.93,1.28-2.6.86-.66,1.97-1,3.33-1,.94,0,1.81.18,2.6.53.79.35,1.46.87,2.03,1.54l-1.77,1.45c-.8-.83-1.76-1.25-2.89-1.25-.64,0-1.15.12-1.52.36-.38.24-.56.57-.56.99s.21.77.64,1.07c.43.31,1.21.66,2.35,1.08.98.34,1.78.72,2.39,1.13.62.41,1.07.88,1.35,1.41s.43,1.14.43,1.83c0,1.21-.43,2.16-1.3,2.85-.87.69-2.07,1.04-3.6,1.04Z"/>
      <path class="cls-1" d="m202.63,331.04v-18.73h2.61v1.08c.88-.93,1.98-1.39,3.28-1.39,1.14,0,2.12.28,2.94.85.83.57,1.46,1.38,1.91,2.43.45,1.05.68,2.29.68,3.72s-.23,2.66-.69,3.72c-.46,1.05-1.1,1.87-1.93,2.45-.83.58-1.81.87-2.92.87-.68,0-1.29-.12-1.84-.37s-1.02-.62-1.43-1.13v5.3l-2.61,1.21Zm5.52-7.48c1.05,0,1.85-.4,2.41-1.19.56-.79.84-1.92.84-3.38s-.29-2.53-.88-3.34c-.59-.81-1.38-1.22-2.37-1.22-.64,0-1.2.14-1.7.41-.49.28-.9.67-1.21,1.19v5.93c.38.52.82.92,1.32,1.19.49.27,1.02.41,1.59.41Z"/>
      <path class="cls-1" d="m223.3,326.03c-1.85,0-3.31-.63-4.38-1.88-1.07-1.25-1.6-2.96-1.6-5.12,0-1.44.24-2.69.73-3.74.49-1.05,1.18-1.86,2.07-2.43.9-.57,1.96-.86,3.18-.86s2.3.28,3.19.85c.9.56,1.58,1.37,2.07,2.42.48,1.05.72,2.3.72,3.74s-.24,2.7-.73,3.75c-.48,1.05-1.17,1.86-2.07,2.43-.89.57-1.95.85-3.19.85Zm0-2.47c1.05,0,1.87-.4,2.46-1.21s.89-1.92.89-3.36-.3-2.55-.89-3.36-1.41-1.21-2.46-1.21-1.87.4-2.46,1.21-.89,1.93-.89,3.38.3,2.54.89,3.34c.59.8,1.41,1.2,2.46,1.2Z"/>
      <path class="cls-1" d="m232.8,325.71v-13.4h2.61v1.34c.42-.56.92-.97,1.5-1.25.58-.27,1.25-.41,2-.41,1.58,0,2.77.48,3.57,1.44.8.96,1.19,2.41,1.19,4.35v7.92h-2.61v-7.86c0-1.13-.23-1.98-.69-2.56s-1.14-.87-2.02-.87c-.98,0-1.71.28-2.2.84s-.73,1.4-.73,2.53v7.91h-2.61Z"/>
      <path class="cls-1" d="m252.09,326.03c-.98,0-1.92-.21-2.81-.63-.9-.42-1.62-.98-2.18-1.69l1.81-1.53c.46.5.98.89,1.56,1.16s1.14.41,1.69.41c.75,0,1.33-.14,1.74-.41s.62-.66.62-1.15c0-.31-.09-.6-.28-.86-.19-.26-.51-.51-.95-.75s-1.05-.5-1.81-.78c-1.49-.55-2.55-1.15-3.19-1.79s-.96-1.45-.96-2.42c0-1.07.43-1.93,1.28-2.6.86-.66,1.97-1,3.33-1,.94,0,1.81.18,2.6.53.79.35,1.46.87,2.03,1.54l-1.77,1.45c-.8-.83-1.76-1.25-2.89-1.25-.64,0-1.15.12-1.52.36-.38.24-.56.57-.56.99s.21.77.64,1.07c.43.31,1.21.66,2.35,1.08.98.34,1.78.72,2.39,1.13.62.41,1.07.88,1.35,1.41s.43,1.14.43,1.83c0,1.21-.43,2.16-1.3,2.85-.87.69-2.07,1.04-3.6,1.04Z"/>
      <path class="cls-1" d="m260.72,325.71v-13.4h2.61v13.4h-2.61Z"/>
      <path class="cls-1" d="m273.63,326.03c-.65,0-1.22-.12-1.73-.35s-1.01-.6-1.49-1.1v1.13h-2.61v-17.73l2.61-1.21v6.65c.39-.45.87-.81,1.43-1.06s1.15-.37,1.78-.37c1.13,0,2.11.29,2.94.86.83.57,1.48,1.39,1.93,2.44.46,1.05.69,2.29.69,3.7,0,2.22-.49,3.95-1.46,5.18-.98,1.23-2.34,1.85-4.09,1.85Zm-.34-2.47c1.04,0,1.84-.39,2.39-1.18.55-.79.83-1.91.83-3.38s-.27-2.62-.83-3.4c-.55-.78-1.35-1.17-2.4-1.17-.57,0-1.12.15-1.65.45-.53.3-.94.68-1.23,1.14v5.94c.31.5.72.89,1.22,1.17s1.05.43,1.67.43Z"/>
      <path class="cls-1" d="m282.87,325.71v-13.4h2.61v13.4h-2.61Z"/>
      <path class="cls-1" d="m290.07,325.71v-17.73l2.61-1.21v18.94h-2.61Z"/>
      <path class="cls-1" d="m297.27,325.71v-13.4h2.61v13.4h-2.61Z"/>
      <path class="cls-1" d="m308.12,326.03c-.96,0-1.69-.28-2.2-.85-.5-.56-.75-1.38-.75-2.46v-8.13h-2.1v-2.28h2.1v-4.27l2.61-1.26v5.53h3.21v2.28h-3.21v7.44c0,.56.1.97.31,1.23.2.26.53.39.96.39.63,0,1.31-.22,2.05-.67l-.3,2.44c-.4.21-.82.36-1.26.46s-.91.14-1.42.14Z"/>
      <path class="cls-1" d="m315.71,330.8l2.05-5.39-4.98-13.1h2.65l3.19,8.7c.1.22.17.43.24.63.06.2.12.42.18.66.07-.24.14-.45.2-.65s.14-.41.22-.64l3.24-8.7h2.68l-6.99,18.49h-2.66Z"/>
    </g>
  </g>
  <path class="cls-1" d="m449.32,257.17c-1.39-1.87-2.86-3.53-4.45-5.06-.31-.29-.51-.48-.7-.66-.22-.2-.44-.41-.67-.61,0,0,0,0-.01,0-.32-.29-.66-.57-.99-.85-.05-.05-.11-.09-.17-.14-.34-.28-.68-.55-1.03-.83-4.77-3.71-16.48-10.02-16.48-10.02-.88-.47-1.78-.95-2.7-1.44-1.2-.64-2.25-1.18-3.18-1.66-1.88-.95-1.84-.88-2.38-1.18-1.01-.49-1.94-.92-2.88-1.36-2.51-1.17-5.35-2.5-11.16-5.52-10.63-5.54-13.98-7.82-15.9-9.74-.31-.3-.67-.7-1.13-1.25-.94-1.14-4.1-5.23-4.47-10.21-.4-5.33,2.31-10.1,5.51-12.87,1.47-1.27,2.82-1.93,4.44-2.71,3.46-1.67,6.72-2.36,10.52-3.04,1.12-.2,2.32-.42,3.6-.6.01-.04.02-.07.03-.11.4-1.6,1.25-4.98.9-8.63-.15-1.59-.62-6.41-3.84-9.3-1.44.21-2.72.44-3.82.64-1.25.23-2.83.51-4.67.95-.6.16-1.21.32-1.82.48-.72.19-1.39.38-2.03.58-1.89.59-3.94,1.34-6.11,2.31-1.58.71-3.72,1.78-6.18,3.31-.02.01-.04.03-.07.04-3.44,2.13-6.91,4.98-7.56,5.56-3.09,2.76-7.6,12.86-6.52,24.57.24,2.6,1.41,12.33,8.42,20.87,5.08,6.19,11.36,9.61,22.55,15.44,6.15,3.21,9.19,4.62,11.86,5.87,2.31,1.08,4.13,1.93,7.59,3.77,12.34,6.58,17.49,9.45,21.21,14.46,1.93,2.6,5.16,6.95,5.34,13,.2,7.1-4.03,12.43-5.83,14.7-1.12,1.41-2.32,2.62-3.54,3.67.54,1.11,2.12,4.22,4.92,6.86,1.6,1.51,4.88,4.61,9.11,4.58.09,0,.18-.01.27-.01,1.09-1.1,2.15-2.29,3.19-3.59,2.53-3.18,10.21-12.86,9.82-26.73-.34-11.91-6.39-20.04-8.97-23.52Z"/>
</svg>